<?xml version="1.0" encoding="utf-8"?>
<!-- Generator: Adobe Illustrator 17.0.0, SVG Export Plug-In . SVG Version: 6.00 Build 0)  -->
<!DOCTYPE svg PUBLIC "-//W3C//DTD SVG 1.1//EN" "http://www.w3.org/Graphics/SVG/1.1/DTD/svg11.dtd">
<svg version="1.1" id="Layer_1" xmlns="http://www.w3.org/2000/svg" xmlns:xlink="http://www.w3.org/1999/xlink" x="0px" y="0px"
	 width="543px" height="111px" viewBox="0 0 543 111" enable-background="new 0 0 543 111" xml:space="preserve">
<g id="QZfgQX.tif">
	<g>
		<path fill="#FBFBFB" d="M1,16C5.57,8.861,12.229,5.253,20.565,4.963c9.997-0.348,15.801,6.462,14.016,16.503
			c-0.987,5.552-2.584,10.996-3.907,16.488c-0.226,0.939-0.459,1.876-0.711,2.905c5.523,0,10.811,0.218,16.055-0.164
			c1.21-0.088,2.772-2.037,3.317-3.458c2.736-7.136,5.14-14.399,7.774-21.576c0.621-1.691,1.302-3.784,2.636-4.684
			c1.72-1.16,4.338-2.099,6.157-1.607c1.183,0.32,2.606,3.595,2.232,5.136c-1.326,5.464-3.379,10.752-5.153,16.108
			c-0.985,2.974-1.963,5.951-3.129,9.487c2.624-0.233,4.815-0.827,6.845-0.479c1.556,0.267,2.909,1.723,4.352,2.651
			c-1.124,1.178-2.048,2.964-3.412,3.415c-3.472,1.148-8.233,0.608-10.422,2.798c-2.162,2.164-2.277,6.828-2.419,10.429
			c-0.142,3.584-0.503,8.83,1.541,10.471c3.894,3.125,7.604-1.033,10.725-3.676c4.06-3.439,7.838-6.88,9.656-12.436
			c2.104-6.429,6.497-11.646,12.96-14.505c2.838-1.255,5.919-2.824,8.617,0.475c0.204,0.249,0.491,0.488,0.788,0.595
			c2.07,0.748,5.644,1.087,5.937,2.257c0.722,2.889,0.121,6.177-0.276,9.262c-0.647,5.025-1.557,10.015-2.356,15.021
			c0.624,0.43,1.247,0.86,1.871,1.29c3.923-2.986,7.847-5.972,12.436-9.464c1.078-3.243,2.238-8.109,4.28-12.57
			c3.457-7.553,11.15-10.369,17.721-7.02c5.492,2.799,7.861,11.755,3.881,18.127c-2.63,4.21-6.77,7.476-9.92,10.832
			c7.721,1.773,16.714-3.973,18.678-12.397c0.823-3.528,2.052-7.052,3.682-10.282c3.391-6.719,10.349-9.286,16.772-6.596
			c5.327,2.23,8.491,10.03,5.246,16.353c-2.594,5.055-7.14,9.107-11.375,14.284c4.506-1.548,9.024-2.95,13.39-4.723
			c0.923-0.375,1.555-2.041,1.873-3.231c1.622-6.087,2.886-12.278,4.753-18.284c0.546-1.758,2.412-3.527,4.126-4.371
			c1.394-0.687,3.728-0.48,5.124,0.283c0.685,0.374,0.492,2.978,0.173,4.459c-1.435,6.654-3.163,13.245-4.53,19.912
			c-0.301,1.467,0.443,3.148,0.706,4.731c1.692-0.328,3.616-0.25,5.033-1.06c4.128-2.36,7.342-5.138,7.088-10.887
			c-0.194-4.387,1.178-8.872,2.075-13.268c0.621-3.042,2.347-5.425,5.845-4.811c3.582,0.629,3.345,3.603,3.041,6.331
			c-0.362,3.253-0.804,6.497-0.63,9.932c2.049-3.931,4.075-7.874,6.152-11.79c1.709-3.223,4.272-5.55,8.024-4.246
			c3.86,1.341,3.202,5.029,2.859,8.154c-0.507,4.624-1.491,9.211-1.751,13.842c-0.139,2.475-1.518,6.132,2.594,6.934
			c2.622,0.512,6.774-4.481,7.453-7.181c1.319-5.247,2.574-10.677,5.024-15.429c2.927-5.677,8.874-7.705,14.449-6.293
			c5.91,1.497,8.782,7.071,6.567,12.786c-2.681,6.918-8.363,10.483-15.244,13.131c1.88,4.031,5.307,4.056,7.906,2.548
			c6.096-3.535,12.223-7.27,17.496-11.886c4.055-3.55,6.742-8.635,10.218-12.889c1.219-1.492,2.827-3.251,4.529-3.613
			c1.993-0.424,4.282,0.543,6.442,0.906c-0.366,1.972-0.065,4.589-1.228,5.79c-2.985,3.084-3.112,6.066-2.004,9.948
			c0.937,3.282,0.815,6.866,1.189,10.583c5.863-1.323,10.078-5.259,13.824-9.647c3.781-4.427,7.079-9.264,10.787-13.757
			c1.327-1.608,3.069-3.459,4.924-3.887c1.928-0.445,4.459,0.307,6.216,1.375c0.548,0.333,0.056,4.011-1.026,5.091
			c-3.333,3.327-3.351,6.697-2.054,10.887c0.951,3.071,0.836,6.472,1.251,10.219c4.155-2.013,8.143-3.945,12.131-5.877
			c2.057,6.883,1.685,8.731-4.609,11.122c-6.296,2.392-12.93,4.156-19.57,5.3c-5.056,0.871-10.111-0.204-12.418-5.427
			c-11.72,3.476-23.01,10.844-34.848,0.024c-13.932,7.346-19.012,7.351-27.518-0.443c-3.2,1.522-6.404,3.243-9.756,4.597
			c-6.232,2.517-9.172,1.078-10.115-5.658c-0.659-4.703-0.127-9.572-0.127-15.546c-3.282,6.425-5.973,12.165-9.138,17.631
			c-1.104,1.907-3.296,4.222-5.141,4.361c-1.719,0.13-3.637-2.385-6.23-4.297c-2.113,0.919-5.356,2.487-8.715,3.746
			c-3.558,1.334-7.108,1.658-10.35-1.098c-0.606-0.515-1.744-0.721-2.573-0.608c-6.05,0.822-12.085,1.762-19.021,2.799
			C159.71,86.127,158.719,97.732,149,106c-2.333,0-4.667,0-7,0c-8.197-10.705-2.921-20.819,1.691-30.742c-5.805,0-11.274,0-16.956,0
			C125.729,86.477,125.151,98.091,115,106c-2,0-4,0-6,0c-5.612-4.964-5.919-11.342-4.13-17.849c1.324-4.815,3.58-9.374,5.533-14.334
			c-8.179,3.657-9.553,3.333-15.027-3.274c-9.841,7.535-14.519,7.478-21.119-0.092c-4.3,2.544-8.356,5.539-12.863,7.494
			C49.9,82.931,41.689,76.811,42.949,64.306c0.538-5.338,1.787-10.604,2.752-16.125c-4.024,0.359-7.648,0.937-11.273,0.947
			c-5.742,0.016-8.596,2.422-10.086,8.227c-1.675,6.524-4.661,12.756-7.509,18.915c-1.223,2.645-3.705,4.393-7.034,2.795
			c-3.17-1.522-2.869-3.983-1.937-6.776c2.305-6.903,4.482-13.848,6.713-20.785c-10.82-2.93-13.622-5.856-11.785-12.589
			c1.019,0.653,1.92,1.703,2.886,1.767c4.237,0.282,8.492,0.279,12.741,0.379c2.748-7.427,6.859-14.515,5.88-22.886
			c-0.418-3.578-2.906-5.191-5.998-4.163c-4.025,1.338-7.736,3.609-11.599,5.442C4.821,20.346,2.902,21.154,1,22C1,20,1,18,1,16z
			 M96.511,44.815c-7.382,2.737-12.481,10.036-12.506,17.441c-0.006,1.959,1.427,3.923,2.199,5.885
			c1.676-1.323,4.268-2.326,4.863-4.027C93.173,58.1,94.594,51.848,96.511,44.815z M158.591,63.361
			c7.014-2.292,10.349-6.942,11.298-13.094c0.239-1.548-1.272-3.367-1.979-5.061c-1.733,0.948-4.489,1.512-5.015,2.913
			C161.046,53.044,159.964,58.257,158.591,63.361z M125.023,63.129c0.553,0.209,1.106,0.419,1.659,0.628
			c5.085-2.847,8.517-7.09,9.314-12.973c0.238-1.754-1.15-3.729-1.793-5.602c-1.804,1.109-4.622,1.83-5.222,3.4
			C127.194,53.251,126.279,58.255,125.023,63.129z M307.884,65.601c0.046,0.741,0.091,1.482,0.137,2.223
			c2.651,0.533,6.091,2.382,7.807,1.354c5.184-3.105,2.018-8.429,2.827-13C314.744,59.6,311.314,62.601,307.884,65.601z
			 M274.746,65.909c-0.031,0.707-0.062,1.414-0.093,2.121c2.585,0.434,5.945,2.108,7.609,1.068c5.027-3.141,1.924-8.372,2.693-12.69
			c-0.416-0.191-0.832-0.381-1.248-0.572C280.72,59.194,277.733,62.552,274.746,65.909z M247.263,57.218
			c5.948-0.725,8.993-2.997,10.584-6.759c0.55-1.302-0.465-3.265-0.765-4.926c-1.506,0.309-3.78,0.113-4.378,1.02
			C250.74,49.534,249.383,52.915,247.263,57.218z M146.808,96.669c0.864,0.023,1.727,0.045,2.591,0.068
			c0.388-6.25,0.775-12.499,1.163-18.749c-0.41-0.044-0.821-0.087-1.231-0.131C148.028,84.075,143.537,89.923,146.808,96.669z
			 M117.162,77.031c-5.74,8.667-6.607,16.962-1.683,20.33C116.041,90.578,116.557,84.348,117.162,77.031z"/>
		<path fill="#FBFBFB" d="M544,68c-3.726,2.101-7.311,4.522-11.208,6.234c-7.197,3.162-9.83,2.329-14.618-3.72
			c-0.698-0.882-1.368-1.787-2.043-2.67c-12,9.695-12,9.695-16.967,3.941c-9.113,4.33-18.363,7.801-26.141-2.053
			c-4.172,2.105-7.943,4.766-12.129,5.924c-4.987,1.379-7.779-2.609-10.06-6.06c-3.641,2.022-7.034,5.02-10.839,5.696
			c-3.557,0.631-7.551-1.203-11.353-1.952c0.045-0.561,0.091-1.121,0.136-1.682c-3.029,1.27-6.015,2.659-9.098,3.781
			c-4.083,1.486-7.215,0.105-7.786-4.226c-0.729-5.536-0.679-11.174-0.971-16.872c-2.854,5.526-5.61,11.425-8.931,16.986
			c-1.164,1.948-3.736,4.323-5.633,4.296c-3.726-0.053-4.449-3.762-4.177-6.766c0.81-8.922,1.728-17.858,3.271-26.671
			c0.314-1.791,3.447-4.16,5.455-4.342c3.395-0.308,3.354,2.983,3.157,5.514c-0.257,3.297-0.727,6.578-0.313,10.208
			c0.651-1.322,1.278-2.657,1.958-3.964c1.38-2.652,2.754-5.308,4.195-7.926c1.697-3.084,4.641-5.369,7.659-3.579
			c1.837,1.09,2.876,4.9,2.845,7.472c-0.061,5.116-1.421,10.209-1.59,15.334c-0.065,1.981,2.03,5.834,2.482,5.738
			c2.796-0.595,5.178-1.71,5.989-5.455c2.354-10.868,7.026-20.171,18.755-22.451c2.023-7.779,3.677-15.223,5.931-22.481
			C453.996,9.754,457.696,4.272,464,1c1.333,0,2.667,0,4,0c3.652,2.483,4.708,6.137,4.964,10.324
			c0.739,12.115-4.255,22.696-8.688,33.445c-1.77,4.291-4.048,8.483-5.018,12.953c-0.586,2.702,0.896,5.853,1.449,8.802
			c2.799-1.247,5.783-2.213,8.308-3.877c1.044-0.688,1.306-2.834,1.577-4.378c1.2-6.83,2.959-13.398,8.67-17.991
			c4.766-3.834,11.744-3.666,15.581,0.17c3.598,3.596,3.939,9.126-0.218,14.005c-2.816,3.305-6.848,5.582-10.373,8.27
			c-0.818,0.624-1.787,1.048-2.687,1.565c0.185,0.518,0.369,1.036,0.554,1.554c9.178,3.785,15.229-3.792,22.865-7.858
			c1.405,1.815,2.816,3.64,4.228,5.464c0.503-0.154,1.006-0.308,1.509-0.461c0-2.495,0.579-5.17-0.127-7.446
			c-1.27-4.101-3.378-7.936-5.006-11.935c-1.458-3.579,1.337-4.682,3.728-5.857c2.624-1.29,3.817,0.019,4.84,2.454
			c1.403,3.343,3.274,6.489,5.045,9.913c3.606-3.051,6.908-6.047,10.43-8.756c2.315-1.781,5.237-4.31,7.765-0.9
			c2.383,3.215,0.873,6.082-2.344,8.413c-3.218,2.332-5.989,5.272-9.097,7.768c-2.413,1.938-2.756,3.812-0.796,6.277
			c1.855,2.332,3.312,5.567,7.076,3.449c4.028-2.266,7.851-4.896,11.764-7.367C544,62,544,65,544,68z M446.972,45.539
			c-5.853,3.329-10.828,12.63-10.16,18.188c0.359,2.982,3.399,4.712,5.773,2.668c2.206-1.899,4.388-4.806,4.827-7.549
			C448.074,54.704,447.211,50.317,446.972,45.539z M457.355,43.677c4.345-10.584,9.498-20.994,7.06-33.04
			C457.269,20.617,457.745,32.24,457.355,43.677z M478.901,57.074c5.967-0.413,8.908-2.934,10.666-6.572
			c0.6-1.241-0.448-3.279-0.743-4.953c-1.526,0.29-3.83,0.059-4.437,0.965C482.38,49.51,480.986,52.917,478.901,57.074z"/>
		<path fill="#FBFBFB" d="M376.766,18.232c-4.113,1.037-7.445,1.878-11.028,2.782c-1.681-4.068-0.543-7.104,3.277-8.947
			c8.417-4.06,17.342-4.289,26.319-2.685c1.284,0.229,3.232,2.583,3.065,3.678c-0.229,1.509-2.247,3.98-3.382,3.918
			c-7.963-0.436-8.408,5.316-9.654,10.731c-3.199,13.898-6.536,27.764-9.844,41.753c2.191,0.575,4.396,0.833,6.274,1.758
			c1.262,0.621,2.06,2.185,3.065,3.328c-1.304,0.848-2.58,2.373-3.917,2.429c-6.48,0.271-12.976,0.15-19.467,0.162
			c-3.486,0.007-6.973,0.001-10.671,0.001c0.915-5.83,5.297-6.198,9.466-7.217c1.539-0.376,3.638-1.803,4-3.149
			C368.52,50.941,372.489,35.032,376.766,18.232z"/>
		<path fill="#FBFBFB" d="M201.978,26.384c-0.198,3.976-3.362,6.643-7.758,6.539c-4.242-0.1-6.66-2.535-6.378-6.423
			c0.276-3.813,3.808-6.683,8.026-6.282C199.512,20.564,202.226,22.07,201.978,26.384z"/>
	</g>
</g>
</svg>
